<svg xmlns="http://www.w3.org/2000/svg" viewBox="0 0 37.11 12.59"><defs><style>.cls-1{opacity:0.69;}.cls-2{fill:#3d829c;}</style></defs><title>back2000px</title><g id="Capa_2" data-name="Capa 2"><g id="Capa_1-2" data-name="Capa 1"><g class="cls-1"><path class="cls-2" d="M14.56,3.16l-12.71.2c-3.22.05-1.79,4.47.89,4.55q10.41.33,20.79-.2c3.18-.16,1.85-4.64-.89-4.56A43.09,43.09,0,0,0,10.21,4.93C7.9,5.69,9,9.1,11.07,9.33a58.77,58.77,0,0,0,15.45-.25c2.7-.41,2.29-4.16-.29-4.5A81.22,81.22,0,0,0,6.4,4.32c-3.24.36-1.78,4.44.89,4.55q7.2.3,14.41.17c3.22,0,1.79-4.46-.89-4.55a41.65,41.65,0,0,0-10.27,1C7.61,6.07,9.91,9.81,12,9.91a90.14,90.14,0,0,0,17.83-1c3.25-.51,1.76-4.34-.89-4.56a54.87,54.87,0,0,0-15.45,1C10.75,5.87,12.65,10,15,9.78A107.62,107.62,0,0,0,31.59,7.1C34,6.51,32.7,3,30.73,2.69a46.77,46.77,0,0,0-13.21.09c-3.2.48-1.81,4.44.89,4.55,4.32.18,8.62.18,13,0,3-.13,2-4-.29-4.5A6.76,6.76,0,0,0,26,3.5c-1.94,1-.27,4,1.38,4.17a76.11,76.11,0,0,0,7.85.56L33.72,3.76c-2.72.9-5.38,1.91-8,3.06-2.2.95-1.34,4,.86,4.4a22.54,22.54,0,0,0,7.9-.05c2.88-.49.67-4.42-1.46-4.46A82.92,82.92,0,0,0,16.22,8.13c-2.88.53-.68,4.43,1.46,4.46a24.46,24.46,0,0,0,7.88-1.14c2.91-.89.62-4.29-1.46-4.46a78.89,78.89,0,0,0-9.35-.22c-3.18.11-1.86,4.63.89,4.56l.88,0c3.22-.09,1.79-4.47-.89-4.55a38.79,38.79,0,0,0-9.84,1c-2.91.65-.64,4.38,1.47,4.46A42.73,42.73,0,0,0,14,11.94c3.3-.39,1.7-4.33-.89-4.56L6.12,6.75l1.46,4.47,4.15-1.13c2.91-.79.63-4.34-1.46-4.46C7.9,5.49,5.55,5.4,3.18,5.35L4.64,9.81c3-.94,6-2,8.93-3.14,2.22-.88,1.34-4.14-.86-4.41A22.34,22.34,0,0,0,3.13,3C.39,3.8,2.33,7.54,4.6,7.45a21.08,21.08,0,0,0,6.19-1.13c2.39-.81,1.16-4-.86-4.41a14.6,14.6,0,0,0-3.36-.3c-3.22,0-1.79,4.46.89,4.56A58.8,58.8,0,0,0,22.31,4.81c2.93-.64.62-4.36-1.46-4.46a4.91,4.91,0,0,0-3,.72c-2.24,1.09.11,4.39,2,4.22,2.74-.25,9.69-1.75,12.09-.06,2.56,1.8,5.24-1.5,2.65-3.33C30.25-1.15,23.91.28,19,.74l2,4.22.81-.06L20.27.44A53.44,53.44,0,0,1,6.57,1.61l.89,4.56,2.15.19L8.75,2a17,17,0,0,1-5,1L5.17,7.36A16.83,16.83,0,0,1,12.4,6.7l-.86-4.4C8.59,3.46,5.63,4.5,2.61,5.44-.2,6.31,1.87,9.86,4.07,9.9c2.36,0,4.72.15,7.09.28L9.69,5.72,5.55,6.85c-3,.8-.57,4.28,1.46,4.46l6.94.63-.89-4.56a42.73,42.73,0,0,1-6.69.25L7.83,12.1a33.44,33.44,0,0,1,8.69-.8l-.89-4.55-.88,0,.89,4.56a76.82,76.82,0,0,1,9.35.22L23.52,7.08A21,21,0,0,1,16.79,8l1.47,4.47A76.61,76.61,0,0,1,33.9,11.27L32.43,6.8a12.78,12.78,0,0,1-5.54,0l.86,4.41C30.38,10,33,9,35.76,8.13s.76-4.42-1.46-4.46a61.71,61.71,0,0,1-6.65-.45L29,7.39l1.72-.12-.28-4.5c-4.33.19-8.63.19-12.95,0l.89,4.55a42.32,42.32,0,0,1,12-.19l-.86-4.41a100.19,100.19,0,0,1-15.49,2.5l1.46,4.46a50.54,50.54,0,0,1,14.31-.76l-.89-4.56a89.39,89.39,0,0,1-17.83,1l1.47,4.46A37.25,37.25,0,0,1,21.7,9l-.89-4.55Q13.6,4.61,6.4,4.32l.89,4.55A76.4,76.4,0,0,1,25.92,9l-.29-4.5a54.32,54.32,0,0,1-14.24.37l.86,4.41A38.69,38.69,0,0,1,23.53,7.71l-.89-4.56q-10.39.52-20.79.21l.89,4.55,12.71-.2c3.17,0,1.85-4.6-.89-4.55Z"/></g></g></g></svg>